<?xml version="1.0" encoding="UTF-8"?>
<!-- Generator: visioncortex VTracer 0.6.1 -->
<svg version="1.1" xmlns="http://www.w3.org/2000/svg" width="1280" height="707">
<path d="M0 0 C422.4 0 844.8 0 1280 0 C1280 233.31 1280 466.62 1280 707 C857.6 707 435.2 707 0 707 C0 473.69 0 240.38 0 0 Z " fill="transparent" transform="translate(0,0)"/>
<path d="M0 0 C1.41219187 -0.0046161 2.82437893 -0.01097375 4.23655605 -0.01890898 C8.0941271 -0.03552839 11.95129972 -0.02738994 15.80887175 -0.0149641 C19.97800546 -0.00588546 24.14707234 -0.01989725 28.31619263 -0.03088379 C36.47440366 -0.04864365 44.63246725 -0.04484034 52.79068398 -0.03323323 C59.42271396 -0.02418919 66.05470269 -0.0229791 72.68673706 -0.02732849 C73.63166848 -0.02794142 74.57659989 -0.02855436 75.55016559 -0.02918586 C77.46994695 -0.0304648 79.3897283 -0.03176165 81.30950963 -0.03307623 C99.29924639 -0.0444746 117.28890153 -0.03137997 135.27862489 -0.00987476 C150.7050779 0.00799554 166.13141049 0.00489123 181.55786133 -0.0135498 C199.48447813 -0.03496963 217.41102344 -0.04337604 235.33765125 -0.03110075 C237.25025748 -0.02982659 239.16286372 -0.02856911 241.07546997 -0.02732849 C242.48692304 -0.02640284 242.48692304 -0.02640284 243.92689031 -0.02545848 C250.54876102 -0.02200892 257.17058628 -0.02782544 263.79244995 -0.0372467 C271.86545449 -0.04848042 279.93830352 -0.04539781 288.01129031 -0.02412373 C292.12802737 -0.01363175 296.24450541 -0.0094597 300.36124039 -0.02272034 C304.13394103 -0.03468874 307.90614391 -0.02800922 311.67879975 -0.00681013 C313.68110254 -0.00026511 315.6834402 -0.0132403 317.68570614 -0.02703905 C328.26928616 0.06457197 337.44217827 2.49262283 345.36547852 9.89465332 C354.23455238 19.33518813 356.94364979 30.07283194 357.19750977 42.60559082 C357.21829086 43.47630722 357.23907196 44.34702362 357.26048279 45.24412537 C357.30358977 47.08388763 357.34465015 48.92369885 357.38378906 50.7635498 C357.44289507 53.53718987 357.50809293 56.31063167 357.57446289 59.08410645 C357.79444129 68.56041838 357.95027926 78.02866126 357.88110352 87.50793457 C357.55110352 87.50793457 357.22110352 87.50793457 356.88110352 87.50793457 C356.86692383 86.69969238 356.85274414 85.8914502 356.83813477 85.05871582 C356.70606124 78.18776105 356.70606124 78.18776105 353.25610352 72.50793457 C352.47235352 71.84793457 351.68860352 71.18793457 350.88110352 70.50793457 C351.06860352 68.19543457 351.06860352 68.19543457 351.88110352 66.50793457 C353.20110352 66.17793457 354.52110352 65.84793457 355.88110352 65.50793457 C355.09735352 65.50793457 354.31360352 65.50793457 353.50610352 65.50793457 C351.96443685 65.50793457 350.42277018 65.50793457 348.88110352 65.50793457 C348.55110352 66.16793457 348.22110352 66.82793457 347.88110352 67.50793457 C346.56110352 67.50793457 345.24110352 67.50793457 343.88110352 67.50793457 C343.73922607 68.08229248 343.59734863 68.65665039 343.45117188 69.24841309 C340.96950548 78.8221104 337.67362189 88.10570681 334.44360352 97.44543457 C333.17575707 101.12696444 331.91076922 104.80947144 330.64672852 108.49230957 C330.32851639 109.41883835 330.01030426 110.34536713 329.68244934 111.29997253 C326.87167418 119.50026959 324.14592566 127.72738938 321.43179321 135.96005249 C315.9337939 152.60906451 310.12722492 169.1229854 303.88110352 185.50793457 C303.39613403 186.78045074 303.39613403 186.78045074 302.90136719 188.07867432 C266.74639322 282.7944919 266.74639322 282.7944919 250.88110352 292.50793457 C244.97912296 293.47547237 241.16139151 292.28725048 236.10375977 289.16418457 C227.59721906 282.8253915 222.68567401 273.74186149 217.88110352 264.50793457 C217.37740234 263.56337402 217.37740234 263.56337402 216.86352539 262.59973145 C204.94377964 240.00423618 197.60032058 214.86433597 189.56860352 190.69543457 C189.31570557 189.93651917 189.06280762 189.17760376 188.80224609 188.39569092 C186.44071623 181.30863271 184.09089065 174.222211 181.88110352 167.08605957 C176.91104963 151.39443454 169.23668469 137.60306381 160.88110352 123.50793457 C160.43589355 122.7557666 159.99068359 122.00359863 159.53198242 121.2286377 C158.10575835 118.83023317 156.67078759 116.43766942 155.2175293 114.05554199 C151.96318238 108.71190135 148.88761159 103.27219857 145.81860352 97.82043457 C140.88468861 89.05640681 135.93183887 80.30366145 130.94360352 71.57043457 C130.60669495 70.98046692 130.26978638 70.39049927 129.92266846 69.78265381 C125.22475089 61.56038581 120.47758087 53.36797869 115.69360352 45.19543457 C110.98017976 37.12702341 106.27674793 29.05309908 101.63110352 20.94543457 C101.08172119 19.99950439 100.53233887 19.05357422 99.96630859 18.07897949 C97.22692265 13.27103326 95.09786914 8.91660616 93.88110352 3.50793457 C93.55110352 3.83793457 93.22110352 4.16793457 92.88110352 4.50793457 C97.73138072 19.71519468 103.21139747 34.67037063 108.7578125 49.63342285 C111.76021922 57.73631322 114.75269353 65.83780456 117.56860352 74.00793457 C120.26174477 81.81575972 123.08912768 89.57018901 125.94360352 97.32043457 C132.37032661 114.77852253 138.65294622 132.28738801 144.91448975 149.80529785 C145.91023471 152.58938494 146.90746475 155.37293647 147.9050293 158.15637207 C154.87425243 177.60643895 161.83889021 197.04897486 168.27656555 216.68264771 C170.90961027 224.67779473 173.67472054 232.61445657 176.53344727 240.53137207 C182.29553721 256.57896778 187.83133643 272.70217383 193.35742188 288.83239746 C197.90054922 302.08612929 202.48723204 315.31119055 207.37695312 328.44128418 C209.54103531 334.26220348 211.56113566 340.13147323 213.56860352 346.00793457 C213.97723633 347.19846436 214.38586914 348.38899414 214.80688477 349.61560059 C215.69010514 352.18883277 216.57199801 354.76251456 217.45288086 357.33654785 C219.0053945 361.87256765 220.5623959 366.4070431 222.11938477 370.94152832 C224.21817742 377.05572198 226.31656831 383.17005306 228.41235352 389.28527832 C228.6327681 389.92783066 228.85318268 390.570383 229.08027649 391.23240662 C230.36575634 394.98488109 231.62869969 398.74431098 232.88110352 402.50793457 C202.01815785 402.47159464 171.15532588 402.41489846 140.29247885 402.33001362 C136.64404229 402.31999686 132.99560528 402.31015261 129.34716797 402.30041504 C128.25771802 402.29750298 128.25771802 402.29750298 127.14625897 402.29453209 C115.40536729 402.26355996 103.66449513 402.24654484 91.92357031 402.23474035 C79.86508974 402.22230392 67.80671116 402.19474651 55.74829501 402.1533215 C48.97996672 402.13049916 42.21176993 402.1145285 35.44339943 402.11605072 C29.0666167 402.11679806 22.69015518 402.09881677 16.31345558 402.06676674 C13.97911037 402.05828133 11.64472907 402.05650851 9.31037521 402.06213188 C-7.41917077 402.09704988 -22.31126297 401.78447004 -35.11889648 389.50793457 C-44.52575023 377.55868792 -45.27102064 365.94840676 -45.25260925 351.28839111 C-45.25447964 349.94947822 -45.25678124 348.61056586 -45.25947458 347.27165437 C-45.26557089 343.60737875 -45.26546154 339.94312603 -45.2642802 336.2788465 C-45.26407564 332.32098018 -45.26960019 328.3631211 -45.27433777 324.40525818 C-45.28263301 316.65656374 -45.2853921 308.90787691 -45.28595015 301.15917841 C-45.28642585 294.85846006 -45.28848329 288.55774422 -45.29165077 282.25702667 C-45.30045432 264.38038181 -45.30507062 246.50374295 -45.3043203 228.62709591 C-45.30428034 227.66399825 -45.30424039 226.7009006 -45.30419922 225.70861816 C-45.30415834 224.7443401 -45.30411746 223.78006204 -45.30407534 222.78656343 C-45.30366897 207.16234074 -45.31323706 191.53814217 -45.32733759 175.91392645 C-45.34171265 159.85839734 -45.34860714 143.80287997 -45.34774381 127.74734426 C-45.34741223 118.73850184 -45.35014229 109.72968469 -45.36092186 100.72084808 C-45.37004174 93.05010863 -45.3721899 85.37940591 -45.36541244 77.70866337 C-45.36215472 73.7983309 -45.36206339 69.88806885 -45.37076569 65.97774315 C-45.37866486 62.39127186 -45.37716466 58.80492643 -45.36848155 55.21845809 C-45.36623585 53.32092686 -45.37374831 51.42339162 -45.3817212 49.52587581 C-45.34271962 39.76391555 -44.93624934 29.8351662 -40.24389648 21.07043457 C-39.75147461 20.12297363 -39.25905273 19.1755127 -38.75170898 18.19934082 C-36.07224734 13.78271625 -33.31642818 10.30851368 -28.99389648 7.44543457 C-28.31069336 6.98008301 -27.62749023 6.51473145 -26.92358398 6.03527832 C-17.83950962 1.08837989 -10.32753436 -0.07117288 0 0 Z " fill="#659A9A" transform="translate(465.118896484375,-0.5079345703125)"/>
<path d="M0 0 C1.29647461 0.10054688 1.29647461 0.10054688 2.61914062 0.203125 C3.50279297 0.23921875 4.38644531 0.2753125 5.296875 0.3125 C7.46867035 0.40641547 9.63822178 0.54990993 11.80664062 0.703125 C13.3097125 3.53483819 14.80844916 6.36882711 16.30664062 9.203125 C16.7165625 9.97527344 17.12648438 10.74742187 17.54882812 11.54296875 C25.17791074 25.99198885 32.26677493 40.7137714 39.37939453 55.42138672 C44.44353299 65.88881094 49.58240228 76.31470449 54.80664062 86.703125 C70.45625396 117.85267418 70.45625396 117.85267418 75.99414062 129.578125 C82.63139145 143.62013707 89.6498372 157.47562129 96.61283875 171.35797119 C97.4738174 173.07510971 98.33395097 174.79267225 99.19319153 176.51068115 C101.10815441 180.33642696 103.03396955 184.15486704 105.00390625 187.95263672 C105.33505432 188.59684067 105.66620239 189.24104462 106.00738525 189.9047699 C106.8778396 191.59561009 107.75644231 193.28224874 108.63574219 194.96850586 C109.80664062 197.703125 109.80664062 197.703125 109.80664062 201.703125 C38.52664063 201.703125 -32.75335937 201.703125 -106.19335938 201.703125 C-95.56210937 179.259375 -95.56210937 179.259375 -90.63085938 169.015625 C-89.86225586 167.41364258 -89.86225586 167.41364258 -89.078125 165.77929688 C-86.19201921 159.78177591 -83.25730382 153.81157305 -80.27148438 147.86328125 C-76.61001386 140.56829998 -73.03976505 133.23193812 -69.49520874 125.87957764 C-63.68543879 113.83280397 -57.78722058 101.83720124 -51.77661133 89.88916016 C-47.86799352 82.10107067 -44.09074556 74.25702694 -40.35620117 66.38427734 C-36.36993998 58.00815592 -32.2194692 49.71863664 -28.046875 41.43408203 C-23.86229093 33.10366004 -19.81583121 24.71389905 -15.8828125 16.26171875 C-14.68810545 13.72319925 -13.44657799 11.21314358 -12.19335938 8.703125 C-11.66029175 7.51348145 -11.66029175 7.51348145 -11.11645508 6.29980469 C-8.3556462 0.85385844 -6.06751205 -0.18597738 0 0 Z " fill="transparent" transform="translate(1168.193359375,505.296875)"/>
<path d="M0 0 C0.33 0 0.66 0 1 0 C0.96365465 29.07942475 0.90694977 58.1587473 0.82207905 87.23807288 C0.81206237 90.67621158 0.80221811 94.11435074 0.79248047 97.55249023 C0.78956841 98.57913728 0.78956841 98.57913728 0.78659752 99.62652466 C0.75563123 110.68843079 0.73861191 121.75031621 0.72680578 132.81225749 C0.71436629 144.17465758 0.68650724 155.53693055 0.64538693 166.89926988 C0.62279187 173.27636578 0.60708817 179.65330752 0.60811615 186.03044701 C0.60886389 192.03953028 0.59086649 198.04827301 0.55883217 204.05726814 C0.55035183 206.25615764 0.54857047 208.45508542 0.55419731 210.65398407 C0.61842037 239.62241225 0.61842037 239.62241225 -10.5078125 250.83984375 C-21.35157659 260.23890573 -32.10445076 261.28723892 -46.00390625 261.4140625 C-47.9824485 261.44311172 -47.9824485 261.44311172 -50.0009613 261.4727478 C-53.47780571 261.52369111 -56.95468846 261.5635168 -60.43170166 261.60089111 C-63.9916706 261.64117033 -67.55148531 261.69215248 -71.11132812 261.7421875 C-78.07410556 261.83849791 -85.03698245 261.92304364 -92 262 C-85.65879935 244.02175299 -79.227673 226.0875493 -72.56982422 208.22363281 C-70.67408152 203.12904656 -68.79240552 198.02927106 -66.91015625 192.9296875 C-66.54729523 191.94664139 -66.1844342 190.96359528 -65.81057739 189.95075989 C-65.06352768 187.92682251 -64.31648799 185.90288143 -63.56945801 183.87893677 C-53.77898576 157.35687158 -53.77898576 157.35687158 -49.125 145 C-44.79994132 133.51165907 -40.57594316 121.9867629 -36.36138916 110.45750427 C-34.65800889 105.79782744 -32.95211744 101.13907655 -31.24485779 96.4808197 C-29.62096405 92.04993574 -27.99789162 87.61875109 -26.375 83.1875 C-26.05240204 82.30677826 -25.72980408 81.42605652 -25.39743042 80.51864624 C-21.17737961 68.99426811 -17.00174679 57.45559463 -12.87426758 45.89770508 C-10.47678196 39.2225239 -7.9203867 32.63238062 -5.19140625 26.0859375 C-3.90469586 22.75314666 -2.93325101 19.44651768 -2 16 C-1.34 16 -0.68 16 0 16 C0 10.72 0 5.44 0 0 Z " fill="#659A9A" transform="translate(822,140)"/>
<path d="M0 0 C1.29647461 0.10054688 1.29647461 0.10054688 2.61914062 0.203125 C3.50279297 0.23921875 4.38644531 0.2753125 5.296875 0.3125 C7.46867035 0.40641547 9.63822178 0.54990993 11.80664062 0.703125 C13.3097125 3.53483819 14.80844916 6.36882711 16.30664062 9.203125 C16.7165625 9.97527344 17.12648438 10.74742187 17.54882812 11.54296875 C25.17791074 25.99198885 32.26677493 40.7137714 39.37939453 55.42138672 C44.44353299 65.88881094 49.58240228 76.31470449 54.80664062 86.703125 C70.45625396 117.85267418 70.45625396 117.85267418 75.99414062 129.578125 C82.63139145 143.62013707 89.6498372 157.47562129 96.61283875 171.35797119 C97.4738174 173.07510971 98.33395097 174.79267225 99.19319153 176.51068115 C101.10815441 180.33642696 103.03396955 184.15486704 105.00390625 187.95263672 C105.33505432 188.59684067 105.66620239 189.24104462 106.00738525 189.9047699 C106.8778396 191.59561009 107.75644231 193.28224874 108.63574219 194.96850586 C109.80664062 197.703125 109.80664062 197.703125 109.80664062 201.703125 C101.22664063 201.703125 92.64664062 201.703125 83.80664062 201.703125 C82.73414063 199.558125 81.66164063 197.413125 80.55664062 195.203125 C80.17789795 194.44708984 79.79915527 193.69105469 79.40893555 192.91210938 C77.23309929 188.56745731 75.07071095 184.21648495 72.91992188 179.859375 C61.69845835 156.22838979 61.69845835 156.22838979 45.80664062 135.703125 C44.27398648 134.06829392 42.75260056 132.42280634 41.24414062 130.765625 C40.25220703 129.70021484 40.25220703 129.70021484 39.24023438 128.61328125 C37.80664062 126.703125 37.80664062 126.703125 37.80664062 123.703125 C40.11664062 123.703125 42.42664062 123.703125 44.80664062 123.703125 C36.7016803 106.52761725 28.2912623 89.51385686 19.78710938 72.53369141 C18.00344493 68.97218027 16.22351119 65.40881846 14.44453239 61.84496498 C13.06142179 59.07514834 11.6764258 56.30627796 10.29083633 53.53770065 C9.63236937 52.22143266 8.97449403 50.90486854 8.31722641 49.58800125 C7.41051624 47.77205848 6.50098779 45.95752369 5.59130859 44.14306641 C5.07599579 43.11323639 4.56068298 42.08340637 4.02975464 41.02236938 C3.00569615 38.80364503 3.00569615 38.80364503 1.80664062 37.703125 C1.3930127 38.53110596 0.97938477 39.35908691 0.55322266 40.2121582 C-3.32750813 47.97789985 -7.21410818 55.74067723 -11.10528564 63.50119019 C-13.23486725 67.74916579 -15.36319004 71.99777085 -17.49101639 76.2466259 C-19.06538135 79.39012809 -20.6405115 82.53324233 -22.21728516 85.67553711 C-23.77150113 88.77296934 -25.32366293 91.87142348 -26.8745079 94.97054482 C-27.73153402 96.68191849 -28.59059635 98.392272 -29.44973755 100.10258484 C-33.1839469 107.57047566 -36.73602216 115.10326637 -40.19335938 122.703125 C-39.36884277 122.77023682 -38.54432617 122.83734863 -37.69482422 122.90649414 C-29.44335938 123.578125 -29.44335938 123.578125 -27.19335938 124.703125 C-28.44811983 128.11654917 -29.86691766 130.89317206 -32.00585938 133.828125 C-35.5376378 138.75942558 -38.96799161 143.75181381 -42.38085938 148.765625 C-49.42339418 159.08378099 -56.59503643 169.30809548 -63.88476562 179.453125 C-64.31047852 180.04875244 -64.73619141 180.64437988 -65.17480469 181.25805664 C-66.01292745 182.41926637 -66.86241436 183.57236719 -67.72363281 184.71655273 C-69.78709426 187.49751014 -71.32470159 190.02351503 -72.64257812 193.23828125 C-74.45898857 197.31447791 -75.45785364 199.17656476 -79.19335938 201.703125 C-88.07526651 203.21129114 -97.25964142 202.42657807 -106.19335938 201.703125 C-101.04782059 190.78713704 -95.8587763 179.89241198 -90.63085938 169.015625 C-90.11370361 167.93756592 -89.59654785 166.85950684 -89.0637207 165.7487793 C-86.18207449 159.76160409 -83.25225517 153.80151521 -80.27148438 147.86328125 C-76.61001386 140.56829998 -73.03976505 133.23193812 -69.49520874 125.87957764 C-63.68543879 113.83280397 -57.78722058 101.83720124 -51.77661133 89.88916016 C-47.86799352 82.10107067 -44.09074556 74.25702694 -40.35620117 66.38427734 C-36.36993998 58.00815592 -32.2194692 49.71863664 -28.046875 41.43408203 C-23.86229093 33.10366004 -19.81583121 24.71389905 -15.8828125 16.26171875 C-14.68810545 13.72319925 -13.44657799 11.21314358 -12.19335938 8.703125 C-11.66029175 7.51348145 -11.66029175 7.51348145 -11.11645508 6.29980469 C-8.3556462 0.85385844 -6.06751205 -0.18597738 0 0 Z " fill="#659A9A" transform="translate(1168.193359375,505.296875)"/>
<path d="M0 0 C1.33708008 -0.00193359 1.33708008 -0.00193359 2.70117188 -0.00390625 C3.63380859 -0.00003906 4.56644531 0.00382812 5.52734375 0.0078125 C6.46384766 0.00394531 7.40035156 0.00007813 8.36523438 -0.00390625 C9.70038086 -0.00197266 9.70038086 -0.00197266 11.0625 0 C11.88242432 0.00112793 12.70234863 0.00225586 13.54711914 0.00341797 C15.46484375 0.1328125 15.46484375 0.1328125 16.46484375 1.1328125 C16.56262158 3.71260517 16.59479263 6.26560578 16.58509827 8.84584045 C16.58595269 9.66340535 16.58680712 10.48097025 16.58768743 11.32330984 C16.58934474 14.08413261 16.58381679 16.84489565 16.57836914 19.60571289 C16.5780873 21.57627867 16.57824495 23.54684456 16.57881165 25.51741028 C16.57909973 30.88495759 16.57320125 36.25248277 16.56623769 41.62002492 C16.56000595 47.22279197 16.55940049 52.82555948 16.55821228 58.42832947 C16.55509843 69.04600808 16.54688432 79.66367646 16.53686279 90.28135055 C16.52570332 102.36578574 16.52019162 114.45022141 16.51516736 126.53466046 C16.50470175 151.40071702 16.48690093 176.26676376 16.46484375 201.1328125 C8.21484375 201.1328125 -0.03515625 201.1328125 -8.53515625 201.1328125 C-8.86515625 150.6428125 -9.19515625 100.1528125 -9.53515625 48.1328125 C-17.12515625 59.3528125 -24.71515625 70.5728125 -32.53515625 82.1328125 C-36.00015625 87.0828125 -36.00015625 87.0828125 -39.53515625 92.1328125 C-40.88086277 94.32106896 -42.20090697 96.52576274 -43.47265625 98.7578125 C-44.05917969 99.78132812 -44.64570313 100.80484375 -45.25 101.859375 C-45.67410156 102.60960937 -46.09820312 103.35984375 -46.53515625 104.1328125 C-46.86515625 103.4728125 -47.19515625 102.8128125 -47.53515625 102.1328125 C-46.93359375 100.4609375 -46.93359375 100.4609375 -45.91015625 98.3828125 C-44.09719653 94.53706769 -42.6207973 90.65758009 -41.23046875 86.640625 C-38.73161274 79.57571939 -35.93974239 72.6663865 -33.03515625 65.7578125 C-31.97715031 63.22479729 -30.92207655 60.69056459 -29.8671875 58.15625 C-29.59634842 57.5063208 -29.32550934 56.8563916 -29.04646301 56.18676758 C-26.17696376 49.29164724 -23.3660994 42.37297922 -20.56118774 35.4513855 C-19.73022832 33.40149204 -18.89791959 31.35215163 -18.06518555 29.30297852 C-15.77429977 23.66403138 -13.48816261 18.02344229 -11.23046875 12.37109375 C-10.90409424 11.5605957 -10.57771973 10.75009766 -10.24145508 9.91503906 C-9.66798768 8.49084743 -9.09965191 7.0645725 -8.5378418 5.63574219 C-6.5167328 0.64185981 -5.25965963 0.00722552 0 0 Z " fill="#659A9A" transform="translate(190.53515625,505.8671875)"/>
<path d="M0 0 C7.26 0 14.52 0 22 0 C29.14386528 16.21544024 35.99549293 32.53651145 42.75756836 48.91381836 C43.45553085 50.60401859 44.15352863 52.29420425 44.8515625 53.984375 C45.19353668 54.81259262 45.53551086 55.64081024 45.8878479 56.49412537 C48.64364457 63.15927302 51.43495812 69.80909727 54.24661255 76.4508667 C56.7754964 82.43289821 59.2413439 88.43951838 61.64938354 94.47125244 C62.84269362 97.4110382 64.06430963 100.1018117 65.76171875 102.7890625 C66.17035156 103.51867187 66.57898438 104.24828125 67 105 C66.505 106.485 66.505 106.485 66 108 C58.91584229 98.14600045 52.08798622 88.17052811 45.51586914 77.96728516 C42.3451378 73.04974903 39.10156289 68.21160544 35.6953125 63.453125 C32.98795928 59.53557241 30.45738829 55.5032261 27.93066406 51.46728516 C26.97899831 49.9619458 25.99279363 48.47853816 25 47 C24.67 47 24.34 47 24 47 C23.67 97.82 23.34 148.64 23 201 C15.41 201 7.82 201 0 201 C0 134.67 0 68.34 0 0 Z " fill="#659A9A" transform="translate(0,506)"/>
<path d="M0 0 C1.35726196 0.00616333 1.35726196 0.00616333 2.74194336 0.01245117 C3.72356445 0.01438477 4.70518555 0.01631836 5.71655273 0.01831055 C6.74458008 0.03055664 7.77260742 0.04280273 8.83178711 0.05541992 C9.86368164 0.05606445 10.89557617 0.05670898 11.95874023 0.05737305 C19.62912714 0.10275995 19.62912714 0.10275995 20.76928711 1.24291992 C20.86707253 3.83532372 20.89923472 6.40106688 20.88954163 8.99391174 C20.89039605 9.81556019 20.89125048 10.63720864 20.89213079 11.48375553 C20.89378811 14.25839772 20.88826013 17.03298049 20.8828125 19.80761719 C20.88253066 21.78803506 20.88268831 23.76845304 20.883255 25.74887085 C20.88354309 31.14327677 20.87764459 36.53766066 20.87068105 41.93206143 C20.86444933 47.56285571 20.86384386 53.19365044 20.86265564 58.82444763 C20.85954178 69.49525017 20.85132767 80.16604253 20.84130615 90.83684057 C20.83014669 102.98173411 20.82463499 115.12662812 20.81961071 127.2715255 C20.8091451 152.26199616 20.79134427 177.25245704 20.76928711 202.24291992 C12.51928711 202.24291992 4.26928711 202.24291992 -4.23071289 202.24291992 C-4.27695489 176.20070712 -4.31267341 150.15850417 -4.33433723 124.11625862 C-4.34466221 112.02516408 -4.35874582 99.93409548 -4.3815918 87.84301758 C-4.40148835 77.30790753 -4.41442043 66.77281626 -4.41888988 56.23768795 C-4.42150361 50.65628987 -4.42767222 45.07494551 -4.442173 39.49356461 C-4.45569798 34.24549762 -4.45994589 28.99750674 -4.45692825 23.74942398 C-4.4574807 21.81841621 -4.4614883 19.88740602 -4.46912384 17.95641327 C-4.47900564 15.32958127 -4.47670673 12.70304047 -4.47122192 10.07620239 C-4.47704761 9.30383842 -4.48287329 8.53147444 -4.48887551 7.73570549 C-4.44766353 0.48434116 -4.44766353 0.48434116 0 0 Z " fill="#659A9A" transform="translate(640.230712890625,504.757080078125)"/>
<path d="M0 0 C0.495 0.99 0.495 0.99 1 2 C0.18070453 4.16686255 -0.71012902 6.21638735 -1.6875 8.3125 C-5.14842277 15.9819764 -8.41539792 23.72216207 -11.625 31.5 C-12.12773438 32.71703613 -12.63046875 33.93407227 -13.1484375 35.18798828 C-17.77818587 46.4124353 -22.34635023 57.66203083 -26.89892578 68.91796875 C-27.16624008 69.57815506 -27.43355438 70.23834137 -27.70896912 70.91853333 C-28.43448743 72.71064004 -29.1590486 74.50313417 -29.88354492 76.2956543 C-30.53970329 77.88504119 -31.23101437 79.46202874 -32 81 C-33.79467773 80.90356445 -33.79467773 80.90356445 -36 80 C-37.30529129 77.83257543 -38.30302243 75.85306328 -39.28515625 73.54296875 C-39.58220963 72.87524948 -39.879263 72.20753021 -40.18531799 71.51957703 C-41.14151509 69.35371698 -42.07318792 67.17858212 -43 65 C-43.30427917 64.29151917 -43.60855835 63.58303833 -43.92205811 62.85308838 C-46.13549285 57.68997826 -48.2928851 52.50450167 -50.4375 47.3125 C-51.09710521 45.72051436 -51.75677372 44.12855494 -52.41650391 42.53662109 C-54.00232786 38.70592946 -55.58276322 34.87304607 -57.16046143 31.03900146 C-57.92167076 29.19023955 -58.68507499 27.34238175 -59.44873047 25.49462891 C-60.59849081 22.70780138 -61.73946267 19.91764692 -62.875 17.125 C-63.19009521 16.36098877 -63.50519043 15.59697754 -63.82983398 14.80981445 C-65.40656908 10.88677433 -66.48643687 7.20068305 -67 3 C-63.69269856 6.93402751 -61.03175224 11.05949403 -58.375 15.4375 C-54.28195644 22.08706975 -49.93169939 28.47685214 -45.328125 34.78125 C-42.60075509 38.55197618 -40.02052555 42.41089216 -37.47265625 46.3046875 C-36.98667969 46.86414063 -36.50070313 47.42359375 -36 48 C-35.01 48 -34.02 48 -33 48 C-31.40944709 46.0542464 -31.40944709 46.0542464 -29.9375 43.4375 C-27.12739887 38.83058369 -24.25193605 34.29538332 -21.25 29.8125 C-20.83411621 29.19076904 -20.41823242 28.56903809 -19.98974609 27.9284668 C-16.70003357 23.02252586 -13.3909032 18.12976816 -10.0625 13.25 C-9.60198242 12.57042236 -9.14146484 11.89084473 -8.66699219 11.19067383 C-8.0139209 10.23777466 -8.0139209 10.23777466 -7.34765625 9.265625 C-6.96617432 8.70649414 -6.58469238 8.14736328 -6.19165039 7.57128906 C-5 6 -5 6 -3.47827148 4.48339844 C-1.76942863 2.86476283 -1.76942863 2.86476283 0 0 Z " fill="#659A9A" transform="translate(138,618)"/>
<path d="M0 0 C4.56778675 0.35804504 6.85779369 3.72029911 9.6875 6.9375 C10.21496826 7.52362061 10.74243652 8.10974121 11.28588867 8.71362305 C12.35794023 9.90643257 13.42641093 11.1024705 14.49121094 12.30175781 C16.58120411 14.65418379 18.69904202 16.98115976 20.8125 19.3125 C22.20947773 20.87397692 23.60538025 22.43641671 25 24 C25.6496875 24.72058594 26.299375 25.44117188 26.96875 26.18359375 C27.5771875 26.86550781 28.185625 27.54742188 28.8125 28.25 C29.59560547 29.12398437 29.59560547 29.12398437 30.39453125 30.015625 C32.43988188 32.54369829 34.19619089 35.29428633 36 38 C6.3 37.505 6.3 37.505 -24 37 C-23.03973697 33.15894787 -22.15774587 31.51780958 -19.89453125 28.40234375 C-19.26369629 27.52433105 -18.63286133 26.64631836 -17.98291016 25.74169922 C-17.3285498 24.83693848 -16.67418945 23.93217773 -16 23 C-14.77168604 21.25344559 -13.54638335 19.50476923 -12.32421875 17.75390625 C-10.4865803 15.1306823 -8.64892682 12.50747 -6.81054688 9.88476562 C-5.92012695 8.61342773 -5.92012695 8.61342773 -5.01171875 7.31640625 C-4.48022217 6.55787354 -3.94872559 5.79934082 -3.40112305 5.01782227 C-2.2486484 3.35809009 -1.12083879 1.68125819 0 0 Z " fill="#659A9A" transform="translate(1168,592)"/>
</svg>
