<svg  width="200" height="33" viewBox="0 0 200 33" fill="none" xmlns="http://www.w3.org/2000/svg" xmlns:xlink="http://www.w3.org/1999/xlink">
  <mask id="id0">
    <linearGradient id="id1" gradientUnits="userSpaceOnUse" x1="750.45" y1="393.48" x2="844.04" y2="293.47">
      <stop offset="0" stop-opacity="1" stop-color="white" />
      <stop offset="1" stop-opacity="0" stop-color="white" />
    </linearGradient>
    <rect fill="url(#id1)" x="729.45" y="366.03" width="134.06" height="201.65" />
  </mask>
  <g>
    <path fill="#669999" d="M681.31 366.24l162.74 0c10.59 0 19.25 8.66 19.25 19.25l0 162.74c0 10.58 -8.66 19.24 -19.25 19.24l-162.74 0c-10.58 0 -19.24 -8.66 -19.24 -19.24l0 -162.74c0 -10.59 8.66 -19.25 19.24 -19.25z" />
    <path fill="white" fill-rule="nonzero" style="mask:url(#id0)" d="M863.3 442.18l0 -5.03 -0.57 -56.31c-9.91 28.38 -41.22 132.18 -54.8 132.21 -13.48 0.02 -25.54 -42.55 -34.94 -71.28l-43.33 -75.53 27.43 75.61 43.7 125.62 16.23 0 46.28 -125.29z" />
  </g>
</svg>
